<?xml version="1.0" encoding="UTF-8"?>
<!DOCTYPE svg PUBLIC "-//W3C//DTD SVG 1.1//EN" "http://www.w3.org/Graphics/SVG/1.1/DTD/svg11.dtd">
<!-- Creator: CorelDRAW -->
<svg xmlns="http://www.w3.org/2000/svg" xml:space="preserve" width="18.8024mm" height="24.8028mm" version="1.1" style="shape-rendering:geometricPrecision; text-rendering:geometricPrecision; image-rendering:optimizeQuality; fill-rule:evenodd; clip-rule:evenodd"
viewBox="0 0 312.89 412.74"
 xmlns:xlink="http://www.w3.org/1999/xlink"
 xmlns:xodm="http://www.corel.com/coreldraw/odm/2003">
 <defs>
  <style type="text/css">
   <![CDATA[
    .fil1 {fill:#E31E24;fill-rule:nonzero}
    .fil0 {fill:#28A94B;fill-rule:nonzero}
   ]]>
  </style>
 </defs>
 <g id="Layer_x0020_1">
  <metadata id="CorelCorpID_0Corel-Layer"/>
  <g>
   <path class="fil0" d="M0.05 0c19.37,6.02 38.65,13.66 54.5,26.64 6.25,5.34 14.73,10.72 15.09,19.82 0.72,13.51 0.17,27.06 -0.08,40.59 -4.26,-6.67 -9.35,-12.77 -14.31,-18.91 -5.13,-6.18 -12.56,-9.63 -19.37,-13.55 0.15,67.56 -0.44,135.12 0.51,202.68 -0.15,13.66 -0.87,27.8 4.39,40.71 8.67,24.21 28.07,43.18 50.4,55.17 25.18,13.59 53.88,20.24 82.38,20.79 0.19,-9.69 0.23,-19.36 0.17,-29.04 -34.89,-7.53 -69.71,-28.07 -83.92,-62.24 -9.75,-19.73 -7.01,-42.15 -7.01,-63.36 0.82,-26.02 -0.21,-52.09 0.49,-78.11 1.01,-15.83 1.12,-31.7 1.06,-47.55 11.08,-1.39 22.22,-2.47 33.39,-2.74 1.2,42.06 0.17,84.19 0.57,126.28 0.42,18.17 -2.64,37.42 5.8,54.33 8.17,20.77 29,32.61 49.35,38.86 1.1,-26.13 -0.11,-52.28 0.84,-78.41 1.22,-23.13 0.32,-46.33 1.04,-69.46 3.23,-25.56 22.18,-45.97 42.89,-59.69 19.04,-13.68 41.92,-20.2 64.37,-25.77 9.81,-2.57 20.01,-2.09 30.03,-2.32 0.87,57.37 -0.57,114.73 -0.19,172.1 0.51,13.87 -3.17,27.63 -9.75,39.78 -11.82,22.14 -33.01,37.78 -55.63,47.64 -11.52,4.73 -23.45,8.34 -35.48,11.48 -0.48,22.31 -0.36,44.64 -0.08,66.95 -47.61,1.08 -96.41,-6.2 -139.15,-28.09 -23.51,-11.61 -44.22,-29.51 -57.66,-52.13 -9.16,-16.4 -14.96,-35.06 -14.61,-53.97 0.25,-92.82 -0.19,-185.62 0,-278.45l0 0zm235.6 130.73c-16.27,12.16 -26.91,32.17 -26.42,52.64 0.32,42.57 -0.46,85.16 0.51,127.73 22.29,-3.1 43.94,-14.5 57.07,-33.09 6.29,-9.24 11.59,-19.82 11.69,-31.21 0.19,-44.43 -0.34,-88.86 0.17,-133.26 -15.72,1.29 -30.39,8 -43.01,17.2z"/>
  </g>
  <path class="fil1" d="M94.9 38.54c9.54,-4.05 21.99,0.13 26.7,9.48 3.69,8.65 2.05,20.24 -6.01,25.9 -8.95,6.21 -23.49,4.81 -29.34,-5.07 -7.51,-9.86 -3.23,-26.17 8.65,-30.31z"/>
 </g>
</svg>
