<?xml version="1.0" encoding="UTF-8"?>
<!DOCTYPE svg PUBLIC "-//W3C//DTD SVG 1.1//EN" "http://www.w3.org/Graphics/SVG/1.1/DTD/svg11.dtd">
<!-- Creator: CorelDRAW -->
<svg xmlns="http://www.w3.org/2000/svg" xml:space="preserve" width="85.0002mm" height="24.8028mm" version="1.1" style="shape-rendering:geometricPrecision; text-rendering:geometricPrecision; image-rendering:optimizeQuality; fill-rule:evenodd; clip-rule:evenodd"
viewBox="0 0 6394.45 1865.88"
 xmlns:xlink="http://www.w3.org/1999/xlink"
 xmlns:xodm="http://www.corel.com/coreldraw/odm/2003">
 <defs>
  <style type="text/css">
   <![CDATA[
    .fil1 {fill:#E31E24;fill-rule:nonzero}
    .fil0 {fill:#28A94B;fill-rule:nonzero}
   ]]>
  </style>
 </defs>
 <g id="Layer_x0020_1">
  <metadata id="CorelCorpID_0Corel-Layer"/>
  <g id="_2232377393216">
   <g>
    <path class="fil0" d="M0.23 0c87.59,27.2 174.7,61.73 246.36,120.41 28.24,24.14 66.6,48.47 68.22,89.59 3.25,61.07 0.77,122.32 -0.38,183.48 -19.27,-30.15 -42.27,-57.72 -64.69,-85.49 -23.19,-27.95 -56.78,-43.51 -87.59,-61.26 0.67,305.42 -2.01,610.83 2.29,916.25 -0.67,61.73 -3.91,125.65 19.85,184.05 39.22,109.44 126.9,195.22 227.84,249.41 113.83,61.45 243.59,91.5 372.4,93.98 0.86,-43.8 1.05,-87.5 0.77,-131.29 -157.72,-34.06 -315.16,-126.9 -379.36,-281.37 -44.08,-89.21 -31.68,-190.55 -31.68,-286.43 3.72,-117.64 -0.96,-235.48 2.2,-353.12 4.58,-71.56 5.06,-143.31 4.77,-214.97 50.09,-6.3 100.47,-11.16 150.95,-12.41 5.44,190.16 0.76,380.6 2.57,570.86 1.91,82.15 -11.92,169.17 26.24,245.59 36.92,93.89 131.09,147.42 223.08,175.66 4.96,-118.12 -0.48,-236.34 3.81,-354.46 5.54,-104.57 1.43,-209.43 4.68,-314 14.59,-115.54 100.28,-207.81 193.87,-269.83 86.07,-61.82 189.49,-91.31 291.01,-116.5 44.37,-11.64 90.45,-9.44 135.77,-10.49 3.91,259.34 -2.58,518.67 -0.86,778 2.29,62.69 -14.32,124.89 -44.08,179.85 -53.43,100.09 -149.22,170.79 -251.5,215.35 -52.1,21.37 -106,37.69 -160.39,51.91 -2.19,100.85 -1.62,201.8 -0.38,302.64 -215.25,4.87 -435.85,-28.05 -629.06,-126.99 -106.29,-52.48 -199.89,-133.4 -260.67,-235.68 -41.41,-74.13 -67.65,-158.48 -66.03,-243.97 1.15,-419.62 -0.86,-839.15 0,-1258.78l0 0zm1065.09 590.99c-73.56,54.95 -121.64,145.41 -119.46,237.96 1.43,192.45 -2.1,385 2.29,577.44 100.75,-14.02 198.65,-65.55 258,-149.61 28.43,-41.79 52.38,-89.59 52.86,-141.11 0.86,-200.85 -1.53,-401.69 0.76,-602.44 -71.08,5.82 -137.39,36.16 -194.45,77.76z"/>
   </g>
   <path class="fil0" d="M6343.97 1691c24.47,0 48.95,23.89 48.95,48.27l-48.95 0 0 -48.27z"/>
   <path class="fil1" d="M429.01 174.22c43.13,-18.32 99.42,0.57 120.7,42.84 16.7,39.12 9.25,91.5 -27.19,117.07 -40.46,28.05 -106.2,21.76 -132.63,-22.9 -33.97,-44.56 -14.6,-118.31 39.12,-137.01z"/>
   <path class="fil1" d="M5745.61 335.38c125.37,2.48 250.74,0.47 376.11,1.43 85.87,-0.38 158.86,55.72 210.96,119.27 53.43,63.16 62.97,150.46 61.64,230.13 -2.38,108.01 -55.35,220.22 -154.38,270.88 -99.99,53.43 -216.4,34.54 -324.87,37.11 0.66,123.95 2.38,247.89 -0.38,371.82 -56.77,1.81 -113.64,1.72 -170.41,0.1 -2.86,-226.7 0.47,-453.5 -1.05,-680.2 1.24,-116.88 -1.81,-233.76 2.38,-350.54zm-565.42 -10.4c85.39,-14.22 178.99,-2.1 249.89,50.67 104,72.13 161.91,196.17 172.6,320.01 4.3,60.3 1.53,120.7 2.01,181.1 -0.57,71.17 3.91,143.78 -15.46,213.24 -25.67,103.81 -93.22,196.55 -183.96,253.04 -62.3,38.64 -138.25,39.98 -209.05,36.06 -93.4,-5.82 -177.37,-62.78 -232.61,-136.06 -81.86,-113.26 -89.88,-260.1 -85.39,-394.91 0.19,-102.66 -5.54,-210.77 39.79,-305.99 48.94,-105.34 140.73,-204.37 262.19,-217.16zm-2066.45 10.79c118.6,1.72 237.1,1.24 355.7,0.66 92.37,-2.1 185.11,44.46 239.39,118.98 80.05,119.94 80.72,286.62 5.92,409.32 -51.05,83.49 -150.95,124.23 -245.4,129.48 -59.45,0.96 -118.88,-0.57 -178.33,-0.29 0.1,123.95 1.05,247.98 -0.76,372.02 -59.06,1.9 -118.12,2 -177.09,0 -1.72,-343.4 -1.81,-686.78 0.57,-1030.17zm721.61 113.54c30.34,-53.25 84.35,-98.95 148.27,-100.28 60.69,-2.1 121.37,0.56 182.14,-0.77 48.09,-0.86 100.57,4.01 138.54,36.92 50.19,43.8 85.87,108.3 84.92,176.03 -1.14,194.36 -1.62,388.81 -0.09,583.17 2.96,77.37 -36.17,155.99 -100.48,199.22 -24.33,18.42 -55.81,17.93 -84.05,25.67 -5.63,-268.11 -0.67,-536.32 -1.91,-804.43 -131.1,0 -262.29,3.43 -393.39,-1.05 5.91,-38.64 5.24,-79.95 26.04,-114.49zm1355.24 42.17c-37.59,10.88 -67.65,39.69 -88.92,71.66 -52.95,85.2 -45.8,188.92 -49.81,285 -0.67,105.24 -2.29,220.69 64.22,309.04 50.76,72.8 165.35,81.19 229.37,21.47 64.12,-55.72 79.48,-144.94 80.91,-225.66 0.29,-100.94 12.69,-203.8 -11.83,-303.03 -12.78,-55.15 -44.46,-106.39 -90.35,-140.07 -37.79,-28.62 -89.31,-27.19 -133.58,-18.42zm-2424.35 -155.62c58.3,0.48 116.6,0.96 174.89,0.57 -0.19,343.01 0.2,686.02 0.48,1029.03 -58.29,3.05 -116.6,3.15 -174.89,-0.29 1.53,-343.1 0.96,-686.21 -0.48,-1029.32zm526.78 164.49c-1.53,109.34 -2.11,218.78 0.57,328.12 58.48,0.86 117.26,6.3 175.65,0.86 66.89,-5.15 116.12,-69.94 120.89,-133.77 8.2,-70.32 -12.12,-161.24 -86.07,-188.24 -68.79,-17.94 -140.92,-4.58 -211.05,-6.97zm2621.56 -2.29c1.44,109.63 1.34,219.26 0.48,328.89 64.88,2.48 130.42,9.73 195.02,-0.38 30.24,-4.67 59.44,-20.7 76.04,-47.03 39.31,-63.64 43.6,-148.18 8.31,-214.49 -18.51,-34.25 -52.38,-63.26 -92.55,-65.26 -62.4,-4.2 -124.89,0.66 -187.3,-1.72zm-3637.81 -151.32c119.37,2.67 238.72,-0.29 358.19,1.34 9.82,93.98 -52.29,196.36 -148.66,213.44 -69.56,9.16 -139.87,1.62 -209.71,2.1 -3.91,-72.32 -4.68,-144.65 0.19,-216.88zm2146.7 0.29c118.02,1.24 236.14,1.14 354.17,-0.09 8.68,74.61 -24.52,154.09 -89.88,193.59 -58.58,39.6 -132.24,22.14 -198.26,26.14 -21.66,-3.62 -52.1,6.78 -66.98,-12.97 -9.26,-68.51 -3.44,-137.97 0.96,-206.67zm-2731.58 96.94c31.96,-45.32 77.38,-89.02 135.49,-93.7 54.1,-4.48 108.48,0 162.68,-1.43 51.04,0.29 106.76,-4.96 152.28,23 53.81,35.4 89.59,96.74 95.03,160.86 7.92,73.28 -5.06,146.75 0.76,220.12 0.96,104.86 -5.34,209.81 0.38,314.77 2.1,56.48 7.35,115.26 -11.74,169.74 -16.79,45.03 -47.42,86.16 -88.83,111.25 -23.09,15.56 -52,13.17 -78.14,18.7 -3.44,-267.54 2.48,-535.08 -2.29,-802.52 -130.72,0.1 -261.53,2.67 -392.24,-0.48 4,-40.74 1.52,-85.39 26.62,-120.31z"/>
   <path class="fil0" d="M2334.05 1498.83l-59.06 0 0 148.55 -123.13 -148.55 -59.07 0 0 243.41 59.07 0 0 -148.92 123.13 148.92 59.06 0 0 -243.41zm587.77 243.41l62.64 0 -104.53 -243.41 -65.5 0 -104.17 243.41 62.28 0 16.11 -37.95 117.41 0 15.75 37.95zm-112.76 -85.91l38.66 -90.92 37.95 90.92 -76.61 0zm854.44 -157.5l-65.51 0 -84.47 178.62 -84.84 -178.62 -65.14 0 0 243.41 58.7 0 0 -124.21 58.35 124.21 65.51 0 58.35 -124.21 0 124.21 59.06 0 0 -243.41zm618.91 0l-73.75 0 -93.07 107.03 0 -107.03 -58.71 0 0 243.41 58.71 0 0 -54.77 41.88 -45.82 66.58 100.59 76.24 0 -101.66 -145.33 83.77 -98.08zm393.75 0l0 243.41 186.5 0 0 -54.41 -127.79 0 0 -41.88 106.67 0 0 -50.83 -106.67 0 0 -41.88 127.79 0 0 -54.41 -186.5 0zm573.44 0l0 243.41 186.5 0 0 -54.41 -127.79 0 0 -41.88 106.67 0 0 -50.83 -106.67 0 0 -41.88 127.79 0 0 -54.41 -186.5 0zm873.42 0l-65.51 0 -84.47 178.62 -84.84 -178.62 -65.15 0 0 243.41 58.71 0 0 -124.21 58.35 124.21 65.51 0 58.35 -124.21 0 124.21 59.06 0 0 -243.41z"/>
  </g>
 </g>
</svg>
