<?xml version="1.0" encoding="UTF-8"?>
<!DOCTYPE svg PUBLIC "-//W3C//DTD SVG 1.1//EN" "http://www.w3.org/Graphics/SVG/1.1/DTD/svg11.dtd">
<!-- Creator: CorelDRAW -->
<svg xmlns="http://www.w3.org/2000/svg" xml:space="preserve" width="62.8639mm" height="18.9127mm" version="1.1" style="shape-rendering:geometricPrecision; text-rendering:geometricPrecision; image-rendering:optimizeQuality; fill-rule:evenodd; clip-rule:evenodd"
viewBox="0 0 2512.92 756.02"
 xmlns:xlink="http://www.w3.org/1999/xlink"
 xmlns:xodm="http://www.corel.com/coreldraw/odm/2003">
 <defs>
  <style type="text/css">
   <![CDATA[
    .fil1 {fill:#E31E24;fill-rule:nonzero}
    .fil0 {fill:#28A94B;fill-rule:nonzero}
   ]]>
  </style>
 </defs>
 <g id="Layer_x0020_1">
  <metadata id="CorelCorpID_0Corel-Layer"/>
  <path class="fil0" d="M2486.1 728.79c13,0 26.01,12.69 26.01,25.65l-26.01 0 0 -25.65z"/>
  <path class="fil1" d="M2168.16 8.45c66.62,1.32 133.24,0.25 199.85,0.76 45.63,-0.2 84.41,29.61 112.1,63.37 28.39,33.56 33.46,79.95 32.75,122.28 -1.27,57.39 -29.41,117.02 -82.03,143.94 -53.13,28.39 -114.99,18.35 -172.63,19.72 0.35,65.86 1.27,131.72 -0.2,197.58 -30.16,0.96 -60.38,0.91 -90.55,0.05 -1.52,-120.46 0.25,-240.98 -0.56,-361.44 0.66,-62.1 -0.96,-124.21 1.27,-186.27zm-300.44 -5.53c45.37,-7.56 95.11,-1.12 132.78,26.92 55.26,38.33 86.04,104.24 91.71,170.05 2.28,32.04 0.81,64.13 1.07,96.23 -0.3,37.82 2.08,76.4 -8.21,113.31 -13.64,55.16 -49.53,104.44 -97.75,134.46 -33.11,20.53 -73.46,21.24 -111.08,19.16 -49.63,-3.09 -94.25,-33.36 -123.6,-72.3 -43.5,-60.18 -47.76,-138.21 -45.37,-209.84 0.1,-54.55 -2.94,-112 21.14,-162.59 26.01,-55.97 74.78,-108.6 139.32,-115.39zm-1098.05 5.73c63.02,0.91 125.99,0.66 189.01,0.35 49.08,-1.12 98.36,23.62 127.21,63.22 42.54,63.73 42.89,152.3 3.15,217.5 -27.13,44.36 -80.21,66.01 -130.4,68.8 -31.59,0.51 -63.17,-0.3 -94.76,-0.15 0.05,65.86 0.56,131.77 -0.4,197.68 -31.38,1.01 -62.77,1.06 -94.1,0 -0.91,-182.47 -0.96,-364.94 0.3,-547.4zm383.44 60.33c16.12,-28.29 44.82,-52.58 78.78,-53.29 32.25,-1.12 64.49,0.3 96.79,-0.41 25.56,-0.46 53.44,2.13 73.62,19.62 26.67,23.27 45.63,57.55 45.12,93.54 -0.61,103.28 -0.86,206.6 -0.05,309.88 1.57,41.11 -19.22,82.89 -53.39,105.86 -12.93,9.79 -29.66,9.53 -44.66,13.64 -2.99,-142.47 -0.36,-284.98 -1.02,-427.45 -69.66,0 -139.37,1.82 -209.03,-0.56 3.14,-20.53 2.79,-42.48 13.84,-60.84zm720.13 22.41c-19.98,5.78 -35.94,21.09 -47.25,38.08 -28.14,45.27 -24.34,100.39 -26.47,151.44 -0.36,55.92 -1.22,117.27 34.12,164.21 26.97,38.68 87.86,43.14 121.88,11.41 34.07,-29.61 42.23,-77.01 42.99,-119.91 0.15,-53.64 6.74,-108.29 -6.29,-161.02 -6.79,-29.3 -23.62,-56.53 -48.01,-74.43 -20.08,-15.21 -47.46,-14.45 -70.98,-9.79zm-1288.22 -82.69c30.98,0.26 61.96,0.51 92.93,0.3 -0.1,182.27 0.1,364.53 0.26,546.79 -30.98,1.62 -61.96,1.67 -92.93,-0.15 0.81,-182.31 0.51,-364.63 -0.26,-546.94zm279.91 87.41c-0.81,58.1 -1.12,116.25 0.3,174.35 31.08,0.46 62.31,3.35 93.34,0.46 35.54,-2.74 61.7,-37.16 64.24,-71.08 4.36,-37.36 -6.44,-85.68 -45.73,-100.03 -36.55,-9.53 -74.88,-2.43 -112.14,-3.7zm1393.01 -1.22c0.76,58.25 0.71,116.51 0.26,174.76 34.47,1.32 69.3,5.17 103.63,-0.2 16.07,-2.48 31.58,-11 40.41,-24.99 20.89,-33.82 23.17,-78.74 4.41,-113.97 -9.84,-18.2 -27.83,-33.61 -49.18,-34.68 -33.16,-2.23 -66.36,0.35 -99.52,-0.92zm-1933.01 -80.41c63.43,1.42 126.85,-0.15 190.33,0.71 5.22,49.94 -27.79,104.34 -78.99,113.41 -36.96,4.86 -74.32,0.86 -111.44,1.12 -2.08,-38.43 -2.49,-76.86 0.1,-115.24zm1140.69 0.15c62.71,0.66 125.48,0.61 188.19,-0.05 4.61,39.65 -13.03,81.88 -47.76,102.87 -31.13,21.04 -70.27,11.76 -105.35,13.89 -11.51,-1.92 -27.68,3.6 -35.59,-6.89 -4.92,-36.4 -1.83,-73.31 0.51,-109.82zm-1451.47 51.51c16.98,-24.08 41.12,-47.3 71.99,-49.79 28.75,-2.38 57.64,0 86.44,-0.76 27.12,0.15 56.73,-2.63 80.92,12.22 28.59,18.81 47.61,51.41 50.5,85.48 4.21,38.94 -2.69,77.98 0.4,116.96 0.51,55.72 -2.84,111.49 0.2,167.26 1.12,30.01 3.91,61.24 -6.24,90.19 -8.92,23.93 -25.2,45.78 -47.2,59.11 -12.27,8.27 -27.63,7 -41.52,9.94 -1.83,-142.16 1.32,-284.32 -1.22,-426.43 -69.46,0.05 -138.97,1.42 -208.42,-0.26 2.13,-21.65 0.81,-45.37 14.14,-63.93z"/>
  <path class="fil0" d="M355.36 626.68l-31.38 0 0 78.94 -65.43 -78.94 -31.39 0 0 129.34 31.39 0 0 -79.13 65.43 79.13 31.38 0 0 -129.34zm312.32 129.34l33.29 0 -55.54 -129.34 -34.81 0 -55.35 129.34 33.09 0 8.56 -20.16 62.39 0 8.37 20.16zm-59.92 -45.65l20.54 -48.31 20.16 48.31 -40.71 0zm454.02 -83.69l-34.81 0 -44.89 94.91 -45.08 -94.91 -34.61 0 0 129.34 31.19 0 0 -66 31 66 34.81 0 31 -66 0 66 31.38 0 0 -129.34zm328.87 0l-39.19 0 -49.45 56.87 0 -56.87 -31.2 0 0 129.34 31.2 0 0 -29.1 22.25 -24.35 35.38 53.45 40.51 0 -54.02 -77.23 44.51 -52.11zm209.22 0l0 129.34 99.1 0 0 -28.91 -67.9 0 0 -22.25 56.68 0 0 -27.01 -56.68 0 0 -22.25 67.9 0 0 -28.91 -99.1 0zm304.71 0l0 129.34 99.1 0 0 -28.91 -67.9 0 0 -22.25 56.68 0 0 -27.01 -56.68 0 0 -22.25 67.9 0 0 -28.91 -99.1 0zm464.11 0l-34.81 0 -44.89 94.91 -45.08 -94.91 -34.62 0 0 129.34 31.2 0 0 -66 31 66 34.81 0 31 -66 0 66 31.38 0 0 -129.34z"/>
 </g>
</svg>
